<svg width="289" height="50" viewBox="0 0 289 50" fill="none" xmlns="http://www.w3.org/2000/svg">
<path d="M15.21 31L13.71 26.02H6.72L5.22 31H0.6L7.5 10.06H13.14L19.95 31H15.21ZM10.26 14.2H10.11L7.8 22.15H12.6L10.26 14.2ZM21.4371 36.7V33.01H36.3171V36.7H21.4371ZM39.517 10.06H47.407C48.787 10.06 50.047 10.28 51.187 10.72C52.327 11.16 53.297 11.82 54.097 12.7C54.897 13.56 55.517 14.65 55.957 15.97C56.397 17.27 56.617 18.79 56.617 20.53C56.617 22.27 56.397 23.8 55.957 25.12C55.517 26.42 54.897 27.51 54.097 28.39C53.297 29.25 52.327 29.9 51.187 30.34C50.047 30.78 48.787 31 47.407 31H39.517V10.06ZM47.407 26.95C48.767 26.95 49.837 26.57 50.617 25.81C51.397 25.05 51.787 23.83 51.787 22.15V18.91C51.787 17.23 51.397 16.01 50.617 15.25C49.837 14.49 48.767 14.11 47.407 14.11H44.077V26.95H47.407Z" fill="white"/>
<path d="M93.14 32L92.14 28.68H87.48L86.48 32H83.4L88 18.04H91.76L96.3 32H93.14ZM89.84 20.8H89.74L88.2 26.1H91.4L89.84 20.8ZM102.231 32.24C101.511 32.24 100.865 32.1133 100.291 31.86C99.7181 31.6067 99.2314 31.2467 98.8314 30.78C98.4447 30.3133 98.1447 29.7467 97.9314 29.08C97.7314 28.4133 97.6314 27.6667 97.6314 26.84C97.6314 26.0133 97.7314 25.2667 97.9314 24.6C98.1447 23.9333 98.4447 23.3667 98.8314 22.9C99.2314 22.4333 99.7181 22.0733 100.291 21.82C100.865 21.5667 101.511 21.44 102.231 21.44C103.258 21.44 104.078 21.6667 104.691 22.12C105.318 22.56 105.785 23.14 106.091 23.86L104.751 24.54C104.565 24.0067 104.258 23.5933 103.831 23.3C103.405 23.0067 102.871 22.86 102.231 22.86C101.751 22.86 101.331 22.94 100.971 23.1C100.611 23.2467 100.311 23.46 100.071 23.74C99.8314 24.0067 99.6514 24.3333 99.5314 24.72C99.4114 25.0933 99.3514 25.5067 99.3514 25.96V27.72C99.3514 28.6267 99.5914 29.3733 100.071 29.96C100.565 30.5333 101.285 30.82 102.231 30.82C103.525 30.82 104.458 30.22 105.031 29.02L106.191 29.8C105.858 30.5467 105.358 31.14 104.691 31.58C104.038 32.02 103.218 32.24 102.231 32.24ZM112.213 32.24C111.506 32.24 110.866 32.1133 110.293 31.86C109.733 31.6067 109.246 31.2467 108.833 30.78C108.433 30.3 108.119 29.7333 107.893 29.08C107.679 28.4133 107.573 27.6667 107.573 26.84C107.573 26.0267 107.679 25.2867 107.893 24.62C108.119 23.9533 108.433 23.3867 108.833 22.92C109.246 22.44 109.733 22.0733 110.293 21.82C110.866 21.5667 111.506 21.44 112.213 21.44C112.906 21.44 113.526 21.5667 114.073 21.82C114.619 22.0733 115.086 22.4267 115.473 22.88C115.859 23.32 116.153 23.8467 116.353 24.46C116.566 25.0733 116.673 25.7467 116.673 26.48V27.24H109.253V27.72C109.253 28.16 109.319 28.5733 109.453 28.96C109.599 29.3333 109.799 29.66 110.053 29.94C110.319 30.22 110.639 30.44 111.013 30.6C111.399 30.76 111.833 30.84 112.313 30.84C112.966 30.84 113.533 30.6867 114.013 30.38C114.506 30.0733 114.886 29.6333 115.153 29.06L116.293 29.88C115.959 30.5867 115.439 31.16 114.733 31.6C114.026 32.0267 113.186 32.24 112.213 32.24ZM112.213 22.78C111.773 22.78 111.373 22.86 111.013 23.02C110.653 23.1667 110.339 23.38 110.073 23.66C109.819 23.94 109.619 24.2733 109.473 24.66C109.326 25.0333 109.253 25.4467 109.253 25.9V26.04H114.953V25.82C114.953 24.9 114.699 24.1667 114.193 23.62C113.699 23.06 113.039 22.78 112.213 22.78ZM122.409 32.24C121.449 32.24 120.643 32.06 119.989 31.7C119.349 31.3267 118.796 30.8333 118.329 30.22L119.469 29.3C119.869 29.8067 120.316 30.2 120.809 30.48C121.303 30.7467 121.876 30.88 122.529 30.88C123.209 30.88 123.736 30.7333 124.109 30.44C124.496 30.1467 124.689 29.7333 124.689 29.2C124.689 28.8 124.556 28.46 124.289 28.18C124.036 27.8867 123.569 27.6867 122.889 27.58L122.069 27.46C121.589 27.3933 121.149 27.2933 120.749 27.16C120.349 27.0133 119.996 26.8267 119.689 26.6C119.396 26.36 119.163 26.0667 118.989 25.72C118.829 25.3733 118.749 24.96 118.749 24.48C118.749 23.9733 118.843 23.5333 119.029 23.16C119.216 22.7733 119.469 22.4533 119.789 22.2C120.123 21.9467 120.516 21.76 120.969 21.64C121.423 21.5067 121.909 21.44 122.429 21.44C123.269 21.44 123.969 21.5867 124.529 21.88C125.103 22.1733 125.603 22.58 126.029 23.1L124.969 24.06C124.743 23.74 124.409 23.4533 123.969 23.2C123.529 22.9333 122.976 22.8 122.309 22.8C121.643 22.8 121.136 22.9467 120.789 23.24C120.456 23.52 120.289 23.9067 120.289 24.4C120.289 24.9067 120.456 25.2733 120.789 25.5C121.136 25.7267 121.629 25.8933 122.269 26L123.069 26.12C124.216 26.2933 125.029 26.6267 125.509 27.12C125.989 27.6 126.229 28.2333 126.229 29.02C126.229 30.02 125.889 30.8067 125.209 31.38C124.529 31.9533 123.596 32.24 122.409 32.24ZM132.038 32.24C131.078 32.24 130.272 32.06 129.618 31.7C128.978 31.3267 128.425 30.8333 127.958 30.22L129.098 29.3C129.498 29.8067 129.945 30.2 130.438 30.48C130.932 30.7467 131.505 30.88 132.158 30.88C132.838 30.88 133.365 30.7333 133.738 30.44C134.125 30.1467 134.318 29.7333 134.318 29.2C134.318 28.8 134.185 28.46 133.918 28.18C133.665 27.8867 133.198 27.6867 132.518 27.58L131.698 27.46C131.218 27.3933 130.778 27.2933 130.378 27.16C129.978 27.0133 129.625 26.8267 129.318 26.6C129.025 26.36 128.792 26.0667 128.618 25.72C128.458 25.3733 128.378 24.96 128.378 24.48C128.378 23.9733 128.472 23.5333 128.658 23.16C128.845 22.7733 129.098 22.4533 129.418 22.2C129.752 21.9467 130.145 21.76 130.598 21.64C131.052 21.5067 131.538 21.44 132.058 21.44C132.898 21.44 133.598 21.5867 134.158 21.88C134.732 22.1733 135.232 22.58 135.658 23.1L134.598 24.06C134.372 23.74 134.038 23.4533 133.598 23.2C133.158 22.9333 132.605 22.8 131.938 22.8C131.272 22.8 130.765 22.9467 130.418 23.24C130.085 23.52 129.918 23.9067 129.918 24.4C129.918 24.9067 130.085 25.2733 130.418 25.5C130.765 25.7267 131.258 25.8933 131.898 26L132.698 26.12C133.845 26.2933 134.658 26.6267 135.138 27.12C135.618 27.6 135.858 28.2333 135.858 29.02C135.858 30.02 135.518 30.8067 134.838 31.38C134.158 31.9533 133.225 32.24 132.038 32.24ZM139.484 19.26C139.138 19.26 138.884 19.18 138.724 19.02C138.578 18.8467 138.504 18.6267 138.504 18.36V18.1C138.504 17.8333 138.578 17.62 138.724 17.46C138.884 17.2867 139.138 17.2 139.484 17.2C139.831 17.2 140.078 17.2867 140.224 17.46C140.384 17.62 140.464 17.8333 140.464 18.1V18.36C140.464 18.6267 140.384 18.8467 140.224 19.02C140.078 19.18 139.831 19.26 139.484 19.26ZM138.684 21.68H140.284V32H138.684V21.68ZM143.684 17.2H145.284V23.36H145.364C145.631 22.7067 146.018 22.2267 146.524 21.92C147.044 21.6 147.664 21.44 148.384 21.44C149.024 21.44 149.604 21.5667 150.124 21.82C150.644 22.0733 151.084 22.4333 151.444 22.9C151.818 23.3667 152.098 23.9333 152.284 24.6C152.484 25.2667 152.584 26.0133 152.584 26.84C152.584 27.6667 152.484 28.4133 152.284 29.08C152.098 29.7467 151.818 30.3133 151.444 30.78C151.084 31.2467 150.644 31.6067 150.124 31.86C149.604 32.1133 149.024 32.24 148.384 32.24C146.984 32.24 145.978 31.6 145.364 30.32H145.284V32H143.684V17.2ZM147.944 30.8C148.851 30.8 149.564 30.52 150.084 29.96C150.604 29.3867 150.864 28.64 150.864 27.72V25.96C150.864 25.04 150.604 24.3 150.084 23.74C149.564 23.1667 148.851 22.88 147.944 22.88C147.584 22.88 147.238 22.9333 146.904 23.04C146.584 23.1333 146.304 23.2667 146.064 23.44C145.824 23.6133 145.631 23.8267 145.484 24.08C145.351 24.32 145.284 24.58 145.284 24.86V28.7C145.284 29.0333 145.351 29.3333 145.484 29.6C145.631 29.8533 145.824 30.0733 146.064 30.26C146.304 30.4333 146.584 30.5667 146.904 30.66C147.238 30.7533 147.584 30.8 147.944 30.8ZM156.086 19.26C155.739 19.26 155.486 19.18 155.326 19.02C155.179 18.8467 155.106 18.6267 155.106 18.36V18.1C155.106 17.8333 155.179 17.62 155.326 17.46C155.486 17.2867 155.739 17.2 156.086 17.2C156.433 17.2 156.679 17.2867 156.826 17.46C156.986 17.62 157.066 17.8333 157.066 18.1V18.36C157.066 18.6267 156.986 18.8467 156.826 19.02C156.679 19.18 156.433 19.26 156.086 19.26ZM155.286 21.68H156.886V32H155.286V21.68ZM161.986 32C161.426 32 160.999 31.8467 160.706 31.54C160.426 31.22 160.286 30.82 160.286 30.34V17.2H161.886V30.6H163.406V32H161.986ZM166.535 19.26C166.188 19.26 165.935 19.18 165.775 19.02C165.628 18.8467 165.555 18.6267 165.555 18.36V18.1C165.555 17.8333 165.628 17.62 165.775 17.46C165.935 17.2867 166.188 17.2 166.535 17.2C166.882 17.2 167.128 17.2867 167.275 17.46C167.435 17.62 167.515 17.8333 167.515 18.1V18.36C167.515 18.6267 167.435 18.8467 167.275 19.02C167.128 19.18 166.882 19.26 166.535 19.26ZM165.735 21.68H167.335V32H165.735V21.68ZM177.335 30.32H177.255C176.628 31.6 175.622 32.24 174.235 32.24C173.595 32.24 173.015 32.1133 172.495 31.86C171.975 31.6067 171.528 31.2467 171.155 30.78C170.795 30.3133 170.515 29.7467 170.315 29.08C170.128 28.4133 170.035 27.6667 170.035 26.84C170.035 26.0133 170.128 25.2667 170.315 24.6C170.515 23.9333 170.795 23.3667 171.155 22.9C171.528 22.4333 171.975 22.0733 172.495 21.82C173.015 21.5667 173.595 21.44 174.235 21.44C174.955 21.44 175.568 21.6 176.075 21.92C176.595 22.2267 176.988 22.7067 177.255 23.36H177.335V17.2H178.935V32H177.335V30.32ZM174.675 30.8C175.035 30.8 175.375 30.7533 175.695 30.66C176.028 30.5667 176.315 30.4333 176.555 30.26C176.795 30.0733 176.982 29.8533 177.115 29.6C177.262 29.3333 177.335 29.0333 177.335 28.7V24.86C177.335 24.58 177.262 24.32 177.115 24.08C176.982 23.8267 176.795 23.6133 176.555 23.44C176.315 23.2667 176.028 23.1333 175.695 23.04C175.375 22.9333 175.035 22.88 174.675 22.88C173.768 22.88 173.055 23.1667 172.535 23.74C172.015 24.3 171.755 25.04 171.755 25.96V27.72C171.755 28.64 172.015 29.3867 172.535 29.96C173.055 30.52 173.768 30.8 174.675 30.8ZM189.837 32C189.237 32 188.803 31.84 188.537 31.52C188.283 31.2 188.123 30.8 188.057 30.32H187.957C187.73 30.96 187.357 31.44 186.837 31.76C186.317 32.08 185.697 32.24 184.977 32.24C183.883 32.24 183.03 31.96 182.417 31.4C181.817 30.84 181.517 30.08 181.517 29.12C181.517 28.1467 181.87 27.4 182.577 26.88C183.297 26.36 184.41 26.1 185.917 26.1H187.957V25.08C187.957 24.3467 187.757 23.7867 187.357 23.4C186.957 23.0133 186.343 22.82 185.517 22.82C184.89 22.82 184.363 22.96 183.937 23.24C183.523 23.52 183.177 23.8933 182.897 24.36L181.937 23.46C182.217 22.9 182.663 22.4267 183.277 22.04C183.89 21.64 184.663 21.44 185.597 21.44C186.85 21.44 187.823 21.7467 188.517 22.36C189.21 22.9733 189.557 23.8267 189.557 24.92V30.6H190.737V32H189.837ZM185.237 30.88C185.637 30.88 186.003 30.8333 186.337 30.74C186.67 30.6467 186.957 30.5133 187.197 30.34C187.437 30.1667 187.623 29.9667 187.757 29.74C187.89 29.5133 187.957 29.2667 187.957 29V27.3H185.837C184.917 27.3 184.243 27.4333 183.817 27.7C183.403 27.9667 183.197 28.3533 183.197 28.86V29.28C183.197 29.7867 183.377 30.18 183.737 30.46C184.11 30.74 184.61 30.88 185.237 30.88ZM199.62 30.32H199.54C198.914 31.6 197.907 32.24 196.52 32.24C195.88 32.24 195.3 32.1133 194.78 31.86C194.26 31.6067 193.814 31.2467 193.44 30.78C193.08 30.3133 192.8 29.7467 192.6 29.08C192.414 28.4133 192.32 27.6667 192.32 26.84C192.32 26.0133 192.414 25.2667 192.6 24.6C192.8 23.9333 193.08 23.3667 193.44 22.9C193.814 22.4333 194.26 22.0733 194.78 21.82C195.3 21.5667 195.88 21.44 196.52 21.44C197.24 21.44 197.854 21.6 198.36 21.92C198.88 22.2267 199.274 22.7067 199.54 23.36H199.62V17.2H201.22V32H199.62V30.32ZM196.96 30.8C197.32 30.8 197.66 30.7533 197.98 30.66C198.314 30.5667 198.6 30.4333 198.84 30.26C199.08 30.0733 199.267 29.8533 199.4 29.6C199.547 29.3333 199.62 29.0333 199.62 28.7V24.86C199.62 24.58 199.547 24.32 199.4 24.08C199.267 23.8267 199.08 23.6133 198.84 23.44C198.6 23.2667 198.314 23.1333 197.98 23.04C197.66 22.9333 197.32 22.88 196.96 22.88C196.054 22.88 195.34 23.1667 194.82 23.74C194.3 24.3 194.04 25.04 194.04 25.96V27.72C194.04 28.64 194.3 29.3867 194.82 29.96C195.34 30.52 196.054 30.8 196.96 30.8ZM208.502 32.24C207.795 32.24 207.155 32.1133 206.582 31.86C206.022 31.6067 205.535 31.2467 205.122 30.78C204.722 30.3 204.409 29.7333 204.182 29.08C203.969 28.4133 203.862 27.6667 203.862 26.84C203.862 26.0267 203.969 25.2867 204.182 24.62C204.409 23.9533 204.722 23.3867 205.122 22.92C205.535 22.44 206.022 22.0733 206.582 21.82C207.155 21.5667 207.795 21.44 208.502 21.44C209.195 21.44 209.815 21.5667 210.362 21.82C210.909 22.0733 211.375 22.4267 211.762 22.88C212.149 23.32 212.442 23.8467 212.642 24.46C212.855 25.0733 212.962 25.7467 212.962 26.48V27.24H205.542V27.72C205.542 28.16 205.609 28.5733 205.742 28.96C205.889 29.3333 206.089 29.66 206.342 29.94C206.609 30.22 206.929 30.44 207.302 30.6C207.689 30.76 208.122 30.84 208.602 30.84C209.255 30.84 209.822 30.6867 210.302 30.38C210.795 30.0733 211.175 29.6333 211.442 29.06L212.582 29.88C212.249 30.5867 211.729 31.16 211.022 31.6C210.315 32.0267 209.475 32.24 208.502 32.24ZM208.502 22.78C208.062 22.78 207.662 22.86 207.302 23.02C206.942 23.1667 206.629 23.38 206.362 23.66C206.109 23.94 205.909 24.2733 205.762 24.66C205.615 25.0333 205.542 25.4467 205.542 25.9V26.04H211.242V25.82C211.242 24.9 210.989 24.1667 210.482 23.62C209.989 23.06 209.329 22.78 208.502 22.78ZM220.165 18.04H225.425C226.345 18.04 227.185 18.1867 227.945 18.48C228.705 18.7733 229.352 19.2133 229.885 19.8C230.418 20.3733 230.832 21.1 231.125 21.98C231.418 22.8467 231.565 23.86 231.565 25.02C231.565 26.18 231.418 27.2 231.125 28.08C230.832 28.9467 230.418 29.6733 229.885 30.26C229.352 30.8333 228.705 31.2667 227.945 31.56C227.185 31.8533 226.345 32 225.425 32H220.165V18.04ZM225.425 29.3C226.332 29.3 227.045 29.0467 227.565 28.54C228.085 28.0333 228.345 27.22 228.345 26.1V23.94C228.345 22.82 228.085 22.0067 227.565 21.5C227.045 20.9933 226.332 20.74 225.425 20.74H223.205V29.3H225.425ZM235.07 19.26C234.724 19.26 234.47 19.18 234.31 19.02C234.164 18.8467 234.09 18.6267 234.09 18.36V18.1C234.09 17.8333 234.164 17.62 234.31 17.46C234.47 17.2867 234.724 17.2 235.07 17.2C235.417 17.2 235.664 17.2867 235.81 17.46C235.97 17.62 236.05 17.8333 236.05 18.1V18.36C236.05 18.6267 235.97 18.8467 235.81 19.02C235.664 19.18 235.417 19.26 235.07 19.26ZM234.27 21.68H235.87V32H234.27V21.68ZM247.97 33.14C247.97 34.2067 247.55 34.9867 246.71 35.48C245.884 35.9867 244.637 36.24 242.97 36.24C241.357 36.24 240.197 36.02 239.49 35.58C238.784 35.14 238.43 34.5133 238.43 33.7C238.43 33.14 238.577 32.7 238.87 32.38C239.164 32.0733 239.564 31.8467 240.07 31.7V31.48C239.457 31.1867 239.15 30.7067 239.15 30.04C239.15 29.52 239.317 29.1267 239.65 28.86C239.984 28.58 240.41 28.3733 240.93 28.24V28.16C240.317 27.8667 239.837 27.4467 239.49 26.9C239.157 26.3533 238.99 25.72 238.99 25C238.99 24.48 239.084 24 239.27 23.56C239.457 23.12 239.717 22.7467 240.05 22.44C240.397 22.12 240.804 21.8733 241.27 21.7C241.75 21.5267 242.284 21.44 242.87 21.44C243.604 21.44 244.257 21.5733 244.83 21.84V21.66C244.83 21.26 244.924 20.9333 245.11 20.68C245.297 20.4133 245.604 20.28 246.03 20.28H247.57V21.68H245.61V22.34C245.984 22.66 246.27 23.0467 246.47 23.5C246.684 23.94 246.79 24.44 246.79 25C246.79 25.52 246.697 26 246.51 26.44C246.324 26.88 246.057 27.26 245.71 27.58C245.377 27.8867 244.97 28.1267 244.49 28.3C244.01 28.4733 243.477 28.56 242.89 28.56C242.557 28.56 242.224 28.5267 241.89 28.46C241.544 28.5533 241.23 28.6933 240.95 28.88C240.67 29.0533 240.53 29.3 240.53 29.62C240.53 29.9267 240.677 30.1333 240.97 30.24C241.264 30.3467 241.644 30.4 242.11 30.4H244.31C245.59 30.4 246.517 30.6467 247.09 31.14C247.677 31.62 247.97 32.2867 247.97 33.14ZM246.47 33.26C246.47 32.8467 246.31 32.5133 245.99 32.26C245.684 32.02 245.13 31.9 244.33 31.9H240.89C240.25 32.1933 239.93 32.66 239.93 33.3C239.93 33.7533 240.097 34.14 240.43 34.46C240.777 34.78 241.357 34.94 242.17 34.94H243.65C244.544 34.94 245.237 34.8 245.73 34.52C246.224 34.24 246.47 33.82 246.47 33.26ZM242.89 27.28C243.57 27.28 244.11 27.12 244.51 26.8C244.91 26.4667 245.11 25.96 245.11 25.28V24.72C245.11 24.04 244.91 23.54 244.51 23.22C244.11 22.8867 243.57 22.72 242.89 22.72C242.21 22.72 241.67 22.8867 241.27 23.22C240.87 23.54 240.67 24.04 240.67 24.72V25.28C240.67 25.96 240.87 26.4667 241.27 26.8C241.67 27.12 242.21 27.28 242.89 27.28ZM250.637 19.26C250.29 19.26 250.037 19.18 249.877 19.02C249.73 18.8467 249.657 18.6267 249.657 18.36V18.1C249.657 17.8333 249.73 17.62 249.877 17.46C250.037 17.2867 250.29 17.2 250.637 17.2C250.983 17.2 251.23 17.2867 251.377 17.46C251.537 17.62 251.617 17.8333 251.617 18.1V18.36C251.617 18.6267 251.537 18.8467 251.377 19.02C251.23 19.18 250.983 19.26 250.637 19.26ZM249.837 21.68H251.437V32H249.837V21.68ZM257.117 32C256.557 32 256.13 31.8467 255.837 31.54C255.557 31.22 255.417 30.8067 255.417 30.3V23.08H253.717V21.68H254.677C255.023 21.68 255.257 21.6133 255.377 21.48C255.51 21.3333 255.577 21.0867 255.577 20.74V18.82H257.017V21.68H259.277V23.08H257.017V30.6H259.117V32H257.117ZM269.348 32C268.748 32 268.315 31.84 268.048 31.52C267.795 31.2 267.635 30.8 267.568 30.32H267.468C267.242 30.96 266.868 31.44 266.348 31.76C265.828 32.08 265.208 32.24 264.488 32.24C263.395 32.24 262.542 31.96 261.928 31.4C261.328 30.84 261.028 30.08 261.028 29.12C261.028 28.1467 261.382 27.4 262.088 26.88C262.808 26.36 263.922 26.1 265.428 26.1H267.468V25.08C267.468 24.3467 267.268 23.7867 266.868 23.4C266.468 23.0133 265.855 22.82 265.028 22.82C264.402 22.82 263.875 22.96 263.448 23.24C263.035 23.52 262.688 23.8933 262.408 24.36L261.448 23.46C261.728 22.9 262.175 22.4267 262.788 22.04C263.402 21.64 264.175 21.44 265.108 21.44C266.362 21.44 267.335 21.7467 268.028 22.36C268.722 22.9733 269.068 23.8267 269.068 24.92V30.6H270.248V32H269.348ZM264.748 30.88C265.148 30.88 265.515 30.8333 265.848 30.74C266.182 30.6467 266.468 30.5133 266.708 30.34C266.948 30.1667 267.135 29.9667 267.268 29.74C267.402 29.5133 267.468 29.2667 267.468 29V27.3H265.348C264.428 27.3 263.755 27.4333 263.328 27.7C262.915 27.9667 262.708 28.3533 262.708 28.86V29.28C262.708 29.7867 262.888 30.18 263.248 30.46C263.622 30.74 264.122 30.88 264.748 30.88ZM274.232 32C273.672 32 273.245 31.8467 272.952 31.54C272.672 31.22 272.532 30.82 272.532 30.34V17.2H274.132V30.6H275.652V32H274.232Z" fill="white"/>
</svg>
