<svg width="283" height="50" viewBox="0 0 283 50" fill="none" xmlns="http://www.w3.org/2000/svg">
<path d="M15.21 31L13.71 26.02H6.72L5.22 31H0.6L7.5 10.06H13.14L19.95 31H15.21ZM10.26 14.2H10.11L7.8 22.15H12.6L10.26 14.2ZM39.517 10.06H47.407C48.787 10.06 50.047 10.28 51.187 10.72C52.327 11.16 53.297 11.82 54.097 12.7C54.897 13.56 55.517 14.65 55.957 15.97C56.397 17.27 56.617 18.79 56.617 20.53C56.617 22.27 56.397 23.8 55.957 25.12C55.517 26.42 54.897 27.51 54.097 28.39C53.297 29.25 52.327 29.9 51.187 30.34C50.047 30.78 48.787 31 47.407 31H39.517V10.06ZM47.407 26.95C48.767 26.95 49.837 26.57 50.617 25.81C51.397 25.05 51.787 23.83 51.787 22.15V18.91C51.787 17.23 51.397 16.01 50.617 15.25C49.837 14.49 48.767 14.11 47.407 14.11H44.077V26.95H47.407Z" fill="black"/>
<path d="M21.4371 36.7V33.01H36.3171V36.7H21.4371Z" fill="#0A67D1"/>
<path d="M87.14 30L86.14 26.68H81.48L80.48 30H77.4L82 16.04H85.76L90.3 30H87.14ZM83.84 18.8H83.74L82.2 24.1H85.4L83.84 18.8ZM96.2314 30.24C95.5114 30.24 94.8647 30.1133 94.2914 29.86C93.7181 29.6067 93.2314 29.2467 92.8314 28.78C92.4447 28.3133 92.1447 27.7467 91.9314 27.08C91.7314 26.4133 91.6314 25.6667 91.6314 24.84C91.6314 24.0133 91.7314 23.2667 91.9314 22.6C92.1447 21.9333 92.4447 21.3667 92.8314 20.9C93.2314 20.4333 93.7181 20.0733 94.2914 19.82C94.8647 19.5667 95.5114 19.44 96.2314 19.44C97.2581 19.44 98.0781 19.6667 98.6914 20.12C99.3181 20.56 99.7847 21.14 100.091 21.86L98.7514 22.54C98.5647 22.0067 98.2581 21.5933 97.8314 21.3C97.4047 21.0067 96.8714 20.86 96.2314 20.86C95.7514 20.86 95.3314 20.94 94.9714 21.1C94.6114 21.2467 94.3114 21.46 94.0714 21.74C93.8314 22.0067 93.6514 22.3333 93.5314 22.72C93.4114 23.0933 93.3514 23.5067 93.3514 23.96V25.72C93.3514 26.6267 93.5914 27.3733 94.0714 27.96C94.5647 28.5333 95.2847 28.82 96.2314 28.82C97.5247 28.82 98.4581 28.22 99.0314 27.02L100.191 27.8C99.8581 28.5467 99.3581 29.14 98.6914 29.58C98.0381 30.02 97.2181 30.24 96.2314 30.24ZM106.213 30.24C105.506 30.24 104.866 30.1133 104.293 29.86C103.733 29.6067 103.246 29.2467 102.833 28.78C102.433 28.3 102.119 27.7333 101.893 27.08C101.679 26.4133 101.573 25.6667 101.573 24.84C101.573 24.0267 101.679 23.2867 101.893 22.62C102.119 21.9533 102.433 21.3867 102.833 20.92C103.246 20.44 103.733 20.0733 104.293 19.82C104.866 19.5667 105.506 19.44 106.213 19.44C106.906 19.44 107.526 19.5667 108.073 19.82C108.619 20.0733 109.086 20.4267 109.473 20.88C109.859 21.32 110.153 21.8467 110.353 22.46C110.566 23.0733 110.673 23.7467 110.673 24.48V25.24H103.253V25.72C103.253 26.16 103.319 26.5733 103.453 26.96C103.599 27.3333 103.799 27.66 104.053 27.94C104.319 28.22 104.639 28.44 105.013 28.6C105.399 28.76 105.833 28.84 106.313 28.84C106.966 28.84 107.533 28.6867 108.013 28.38C108.506 28.0733 108.886 27.6333 109.153 27.06L110.293 27.88C109.959 28.5867 109.439 29.16 108.733 29.6C108.026 30.0267 107.186 30.24 106.213 30.24ZM106.213 20.78C105.773 20.78 105.373 20.86 105.013 21.02C104.653 21.1667 104.339 21.38 104.073 21.66C103.819 21.94 103.619 22.2733 103.473 22.66C103.326 23.0333 103.253 23.4467 103.253 23.9V24.04H108.953V23.82C108.953 22.9 108.699 22.1667 108.193 21.62C107.699 21.06 107.039 20.78 106.213 20.78ZM116.409 30.24C115.449 30.24 114.643 30.06 113.989 29.7C113.349 29.3267 112.796 28.8333 112.329 28.22L113.469 27.3C113.869 27.8067 114.316 28.2 114.809 28.48C115.303 28.7467 115.876 28.88 116.529 28.88C117.209 28.88 117.736 28.7333 118.109 28.44C118.496 28.1467 118.689 27.7333 118.689 27.2C118.689 26.8 118.556 26.46 118.289 26.18C118.036 25.8867 117.569 25.6867 116.889 25.58L116.069 25.46C115.589 25.3933 115.149 25.2933 114.749 25.16C114.349 25.0133 113.996 24.8267 113.689 24.6C113.396 24.36 113.163 24.0667 112.989 23.72C112.829 23.3733 112.749 22.96 112.749 22.48C112.749 21.9733 112.843 21.5333 113.029 21.16C113.216 20.7733 113.469 20.4533 113.789 20.2C114.123 19.9467 114.516 19.76 114.969 19.64C115.423 19.5067 115.909 19.44 116.429 19.44C117.269 19.44 117.969 19.5867 118.529 19.88C119.103 20.1733 119.603 20.58 120.029 21.1L118.969 22.06C118.743 21.74 118.409 21.4533 117.969 21.2C117.529 20.9333 116.976 20.8 116.309 20.8C115.643 20.8 115.136 20.9467 114.789 21.24C114.456 21.52 114.289 21.9067 114.289 22.4C114.289 22.9067 114.456 23.2733 114.789 23.5C115.136 23.7267 115.629 23.8933 116.269 24L117.069 24.12C118.216 24.2933 119.029 24.6267 119.509 25.12C119.989 25.6 120.229 26.2333 120.229 27.02C120.229 28.02 119.889 28.8067 119.209 29.38C118.529 29.9533 117.596 30.24 116.409 30.24ZM126.038 30.24C125.078 30.24 124.272 30.06 123.618 29.7C122.978 29.3267 122.425 28.8333 121.958 28.22L123.098 27.3C123.498 27.8067 123.945 28.2 124.438 28.48C124.932 28.7467 125.505 28.88 126.158 28.88C126.838 28.88 127.365 28.7333 127.738 28.44C128.125 28.1467 128.318 27.7333 128.318 27.2C128.318 26.8 128.185 26.46 127.918 26.18C127.665 25.8867 127.198 25.6867 126.518 25.58L125.698 25.46C125.218 25.3933 124.778 25.2933 124.378 25.16C123.978 25.0133 123.625 24.8267 123.318 24.6C123.025 24.36 122.792 24.0667 122.618 23.72C122.458 23.3733 122.378 22.96 122.378 22.48C122.378 21.9733 122.472 21.5333 122.658 21.16C122.845 20.7733 123.098 20.4533 123.418 20.2C123.752 19.9467 124.145 19.76 124.598 19.64C125.052 19.5067 125.538 19.44 126.058 19.44C126.898 19.44 127.598 19.5867 128.158 19.88C128.732 20.1733 129.232 20.58 129.658 21.1L128.598 22.06C128.372 21.74 128.038 21.4533 127.598 21.2C127.158 20.9333 126.605 20.8 125.938 20.8C125.272 20.8 124.765 20.9467 124.418 21.24C124.085 21.52 123.918 21.9067 123.918 22.4C123.918 22.9067 124.085 23.2733 124.418 23.5C124.765 23.7267 125.258 23.8933 125.898 24L126.698 24.12C127.845 24.2933 128.658 24.6267 129.138 25.12C129.618 25.6 129.858 26.2333 129.858 27.02C129.858 28.02 129.518 28.8067 128.838 29.38C128.158 29.9533 127.225 30.24 126.038 30.24ZM133.484 17.26C133.138 17.26 132.884 17.18 132.724 17.02C132.578 16.8467 132.504 16.6267 132.504 16.36V16.1C132.504 15.8333 132.578 15.62 132.724 15.46C132.884 15.2867 133.138 15.2 133.484 15.2C133.831 15.2 134.078 15.2867 134.224 15.46C134.384 15.62 134.464 15.8333 134.464 16.1V16.36C134.464 16.6267 134.384 16.8467 134.224 17.02C134.078 17.18 133.831 17.26 133.484 17.26ZM132.684 19.68H134.284V30H132.684V19.68ZM137.684 15.2H139.284V21.36H139.364C139.631 20.7067 140.018 20.2267 140.524 19.92C141.044 19.6 141.664 19.44 142.384 19.44C143.024 19.44 143.604 19.5667 144.124 19.82C144.644 20.0733 145.084 20.4333 145.444 20.9C145.818 21.3667 146.098 21.9333 146.284 22.6C146.484 23.2667 146.584 24.0133 146.584 24.84C146.584 25.6667 146.484 26.4133 146.284 27.08C146.098 27.7467 145.818 28.3133 145.444 28.78C145.084 29.2467 144.644 29.6067 144.124 29.86C143.604 30.1133 143.024 30.24 142.384 30.24C140.984 30.24 139.978 29.6 139.364 28.32H139.284V30H137.684V15.2ZM141.944 28.8C142.851 28.8 143.564 28.52 144.084 27.96C144.604 27.3867 144.864 26.64 144.864 25.72V23.96C144.864 23.04 144.604 22.3 144.084 21.74C143.564 21.1667 142.851 20.88 141.944 20.88C141.584 20.88 141.238 20.9333 140.904 21.04C140.584 21.1333 140.304 21.2667 140.064 21.44C139.824 21.6133 139.631 21.8267 139.484 22.08C139.351 22.32 139.284 22.58 139.284 22.86V26.7C139.284 27.0333 139.351 27.3333 139.484 27.6C139.631 27.8533 139.824 28.0733 140.064 28.26C140.304 28.4333 140.584 28.5667 140.904 28.66C141.238 28.7533 141.584 28.8 141.944 28.8ZM150.086 17.26C149.739 17.26 149.486 17.18 149.326 17.02C149.179 16.8467 149.106 16.6267 149.106 16.36V16.1C149.106 15.8333 149.179 15.62 149.326 15.46C149.486 15.2867 149.739 15.2 150.086 15.2C150.433 15.2 150.679 15.2867 150.826 15.46C150.986 15.62 151.066 15.8333 151.066 16.1V16.36C151.066 16.6267 150.986 16.8467 150.826 17.02C150.679 17.18 150.433 17.26 150.086 17.26ZM149.286 19.68H150.886V30H149.286V19.68ZM155.986 30C155.426 30 154.999 29.8467 154.706 29.54C154.426 29.22 154.286 28.82 154.286 28.34V15.2H155.886V28.6H157.406V30H155.986ZM160.535 17.26C160.188 17.26 159.935 17.18 159.775 17.02C159.628 16.8467 159.555 16.6267 159.555 16.36V16.1C159.555 15.8333 159.628 15.62 159.775 15.46C159.935 15.2867 160.188 15.2 160.535 15.2C160.882 15.2 161.128 15.2867 161.275 15.46C161.435 15.62 161.515 15.8333 161.515 16.1V16.36C161.515 16.6267 161.435 16.8467 161.275 17.02C161.128 17.18 160.882 17.26 160.535 17.26ZM159.735 19.68H161.335V30H159.735V19.68ZM171.335 28.32H171.255C170.628 29.6 169.622 30.24 168.235 30.24C167.595 30.24 167.015 30.1133 166.495 29.86C165.975 29.6067 165.528 29.2467 165.155 28.78C164.795 28.3133 164.515 27.7467 164.315 27.08C164.128 26.4133 164.035 25.6667 164.035 24.84C164.035 24.0133 164.128 23.2667 164.315 22.6C164.515 21.9333 164.795 21.3667 165.155 20.9C165.528 20.4333 165.975 20.0733 166.495 19.82C167.015 19.5667 167.595 19.44 168.235 19.44C168.955 19.44 169.568 19.6 170.075 19.92C170.595 20.2267 170.988 20.7067 171.255 21.36H171.335V15.2H172.935V30H171.335V28.32ZM168.675 28.8C169.035 28.8 169.375 28.7533 169.695 28.66C170.028 28.5667 170.315 28.4333 170.555 28.26C170.795 28.0733 170.982 27.8533 171.115 27.6C171.262 27.3333 171.335 27.0333 171.335 26.7V22.86C171.335 22.58 171.262 22.32 171.115 22.08C170.982 21.8267 170.795 21.6133 170.555 21.44C170.315 21.2667 170.028 21.1333 169.695 21.04C169.375 20.9333 169.035 20.88 168.675 20.88C167.768 20.88 167.055 21.1667 166.535 21.74C166.015 22.3 165.755 23.04 165.755 23.96V25.72C165.755 26.64 166.015 27.3867 166.535 27.96C167.055 28.52 167.768 28.8 168.675 28.8ZM183.837 30C183.237 30 182.803 29.84 182.537 29.52C182.283 29.2 182.123 28.8 182.057 28.32H181.957C181.73 28.96 181.357 29.44 180.837 29.76C180.317 30.08 179.697 30.24 178.977 30.24C177.883 30.24 177.03 29.96 176.417 29.4C175.817 28.84 175.517 28.08 175.517 27.12C175.517 26.1467 175.87 25.4 176.577 24.88C177.297 24.36 178.41 24.1 179.917 24.1H181.957V23.08C181.957 22.3467 181.757 21.7867 181.357 21.4C180.957 21.0133 180.343 20.82 179.517 20.82C178.89 20.82 178.363 20.96 177.937 21.24C177.523 21.52 177.177 21.8933 176.897 22.36L175.937 21.46C176.217 20.9 176.663 20.4267 177.277 20.04C177.89 19.64 178.663 19.44 179.597 19.44C180.85 19.44 181.823 19.7467 182.517 20.36C183.21 20.9733 183.557 21.8267 183.557 22.92V28.6H184.737V30H183.837ZM179.237 28.88C179.637 28.88 180.003 28.8333 180.337 28.74C180.67 28.6467 180.957 28.5133 181.197 28.34C181.437 28.1667 181.623 27.9667 181.757 27.74C181.89 27.5133 181.957 27.2667 181.957 27V25.3H179.837C178.917 25.3 178.243 25.4333 177.817 25.7C177.403 25.9667 177.197 26.3533 177.197 26.86V27.28C177.197 27.7867 177.377 28.18 177.737 28.46C178.11 28.74 178.61 28.88 179.237 28.88ZM193.62 28.32H193.54C192.914 29.6 191.907 30.24 190.52 30.24C189.88 30.24 189.3 30.1133 188.78 29.86C188.26 29.6067 187.814 29.2467 187.44 28.78C187.08 28.3133 186.8 27.7467 186.6 27.08C186.414 26.4133 186.32 25.6667 186.32 24.84C186.32 24.0133 186.414 23.2667 186.6 22.6C186.8 21.9333 187.08 21.3667 187.44 20.9C187.814 20.4333 188.26 20.0733 188.78 19.82C189.3 19.5667 189.88 19.44 190.52 19.44C191.24 19.44 191.854 19.6 192.36 19.92C192.88 20.2267 193.274 20.7067 193.54 21.36H193.62V15.2H195.22V30H193.62V28.32ZM190.96 28.8C191.32 28.8 191.66 28.7533 191.98 28.66C192.314 28.5667 192.6 28.4333 192.84 28.26C193.08 28.0733 193.267 27.8533 193.4 27.6C193.547 27.3333 193.62 27.0333 193.62 26.7V22.86C193.62 22.58 193.547 22.32 193.4 22.08C193.267 21.8267 193.08 21.6133 192.84 21.44C192.6 21.2667 192.314 21.1333 191.98 21.04C191.66 20.9333 191.32 20.88 190.96 20.88C190.054 20.88 189.34 21.1667 188.82 21.74C188.3 22.3 188.04 23.04 188.04 23.96V25.72C188.04 26.64 188.3 27.3867 188.82 27.96C189.34 28.52 190.054 28.8 190.96 28.8ZM202.502 30.24C201.795 30.24 201.155 30.1133 200.582 29.86C200.022 29.6067 199.535 29.2467 199.122 28.78C198.722 28.3 198.409 27.7333 198.182 27.08C197.969 26.4133 197.862 25.6667 197.862 24.84C197.862 24.0267 197.969 23.2867 198.182 22.62C198.409 21.9533 198.722 21.3867 199.122 20.92C199.535 20.44 200.022 20.0733 200.582 19.82C201.155 19.5667 201.795 19.44 202.502 19.44C203.195 19.44 203.815 19.5667 204.362 19.82C204.909 20.0733 205.375 20.4267 205.762 20.88C206.149 21.32 206.442 21.8467 206.642 22.46C206.855 23.0733 206.962 23.7467 206.962 24.48V25.24H199.542V25.72C199.542 26.16 199.609 26.5733 199.742 26.96C199.889 27.3333 200.089 27.66 200.342 27.94C200.609 28.22 200.929 28.44 201.302 28.6C201.689 28.76 202.122 28.84 202.602 28.84C203.255 28.84 203.822 28.6867 204.302 28.38C204.795 28.0733 205.175 27.6333 205.442 27.06L206.582 27.88C206.249 28.5867 205.729 29.16 205.022 29.6C204.315 30.0267 203.475 30.24 202.502 30.24ZM202.502 20.78C202.062 20.78 201.662 20.86 201.302 21.02C200.942 21.1667 200.629 21.38 200.362 21.66C200.109 21.94 199.909 22.2733 199.762 22.66C199.615 23.0333 199.542 23.4467 199.542 23.9V24.04H205.242V23.82C205.242 22.9 204.989 22.1667 204.482 21.62C203.989 21.06 203.329 20.78 202.502 20.78ZM214.165 16.04H219.425C220.345 16.04 221.185 16.1867 221.945 16.48C222.705 16.7733 223.352 17.2133 223.885 17.8C224.418 18.3733 224.832 19.1 225.125 19.98C225.418 20.8467 225.565 21.86 225.565 23.02C225.565 24.18 225.418 25.2 225.125 26.08C224.832 26.9467 224.418 27.6733 223.885 28.26C223.352 28.8333 222.705 29.2667 221.945 29.56C221.185 29.8533 220.345 30 219.425 30H214.165V16.04ZM219.425 27.3C220.332 27.3 221.045 27.0467 221.565 26.54C222.085 26.0333 222.345 25.22 222.345 24.1V21.94C222.345 20.82 222.085 20.0067 221.565 19.5C221.045 18.9933 220.332 18.74 219.425 18.74H217.205V27.3H219.425ZM229.07 17.26C228.724 17.26 228.47 17.18 228.31 17.02C228.164 16.8467 228.09 16.6267 228.09 16.36V16.1C228.09 15.8333 228.164 15.62 228.31 15.46C228.47 15.2867 228.724 15.2 229.07 15.2C229.417 15.2 229.664 15.2867 229.81 15.46C229.97 15.62 230.05 15.8333 230.05 16.1V16.36C230.05 16.6267 229.97 16.8467 229.81 17.02C229.664 17.18 229.417 17.26 229.07 17.26ZM228.27 19.68H229.87V30H228.27V19.68ZM241.97 31.14C241.97 32.2067 241.55 32.9867 240.71 33.48C239.884 33.9867 238.637 34.24 236.97 34.24C235.357 34.24 234.197 34.02 233.49 33.58C232.784 33.14 232.43 32.5133 232.43 31.7C232.43 31.14 232.577 30.7 232.87 30.38C233.164 30.0733 233.564 29.8467 234.07 29.7V29.48C233.457 29.1867 233.15 28.7067 233.15 28.04C233.15 27.52 233.317 27.1267 233.65 26.86C233.984 26.58 234.41 26.3733 234.93 26.24V26.16C234.317 25.8667 233.837 25.4467 233.49 24.9C233.157 24.3533 232.99 23.72 232.99 23C232.99 22.48 233.084 22 233.27 21.56C233.457 21.12 233.717 20.7467 234.05 20.44C234.397 20.12 234.804 19.8733 235.27 19.7C235.75 19.5267 236.284 19.44 236.87 19.44C237.604 19.44 238.257 19.5733 238.83 19.84V19.66C238.83 19.26 238.924 18.9333 239.11 18.68C239.297 18.4133 239.604 18.28 240.03 18.28H241.57V19.68H239.61V20.34C239.984 20.66 240.27 21.0467 240.47 21.5C240.684 21.94 240.79 22.44 240.79 23C240.79 23.52 240.697 24 240.51 24.44C240.324 24.88 240.057 25.26 239.71 25.58C239.377 25.8867 238.97 26.1267 238.49 26.3C238.01 26.4733 237.477 26.56 236.89 26.56C236.557 26.56 236.224 26.5267 235.89 26.46C235.544 26.5533 235.23 26.6933 234.95 26.88C234.67 27.0533 234.53 27.3 234.53 27.62C234.53 27.9267 234.677 28.1333 234.97 28.24C235.264 28.3467 235.644 28.4 236.11 28.4H238.31C239.59 28.4 240.517 28.6467 241.09 29.14C241.677 29.62 241.97 30.2867 241.97 31.14ZM240.47 31.26C240.47 30.8467 240.31 30.5133 239.99 30.26C239.684 30.02 239.13 29.9 238.33 29.9H234.89C234.25 30.1933 233.93 30.66 233.93 31.3C233.93 31.7533 234.097 32.14 234.43 32.46C234.777 32.78 235.357 32.94 236.17 32.94H237.65C238.544 32.94 239.237 32.8 239.73 32.52C240.224 32.24 240.47 31.82 240.47 31.26ZM236.89 25.28C237.57 25.28 238.11 25.12 238.51 24.8C238.91 24.4667 239.11 23.96 239.11 23.28V22.72C239.11 22.04 238.91 21.54 238.51 21.22C238.11 20.8867 237.57 20.72 236.89 20.72C236.21 20.72 235.67 20.8867 235.27 21.22C234.87 21.54 234.67 22.04 234.67 22.72V23.28C234.67 23.96 234.87 24.4667 235.27 24.8C235.67 25.12 236.21 25.28 236.89 25.28ZM244.637 17.26C244.29 17.26 244.037 17.18 243.877 17.02C243.73 16.8467 243.657 16.6267 243.657 16.36V16.1C243.657 15.8333 243.73 15.62 243.877 15.46C244.037 15.2867 244.29 15.2 244.637 15.2C244.983 15.2 245.23 15.2867 245.377 15.46C245.537 15.62 245.617 15.8333 245.617 16.1V16.36C245.617 16.6267 245.537 16.8467 245.377 17.02C245.23 17.18 244.983 17.26 244.637 17.26ZM243.837 19.68H245.437V30H243.837V19.68ZM251.117 30C250.557 30 250.13 29.8467 249.837 29.54C249.557 29.22 249.417 28.8067 249.417 28.3V21.08H247.717V19.68H248.677C249.023 19.68 249.257 19.6133 249.377 19.48C249.51 19.3333 249.577 19.0867 249.577 18.74V16.82H251.017V19.68H253.277V21.08H251.017V28.6H253.117V30H251.117ZM263.348 30C262.748 30 262.315 29.84 262.048 29.52C261.795 29.2 261.635 28.8 261.568 28.32H261.468C261.242 28.96 260.868 29.44 260.348 29.76C259.828 30.08 259.208 30.24 258.488 30.24C257.395 30.24 256.542 29.96 255.928 29.4C255.328 28.84 255.028 28.08 255.028 27.12C255.028 26.1467 255.382 25.4 256.088 24.88C256.808 24.36 257.922 24.1 259.428 24.1H261.468V23.08C261.468 22.3467 261.268 21.7867 260.868 21.4C260.468 21.0133 259.855 20.82 259.028 20.82C258.402 20.82 257.875 20.96 257.448 21.24C257.035 21.52 256.688 21.8933 256.408 22.36L255.448 21.46C255.728 20.9 256.175 20.4267 256.788 20.04C257.402 19.64 258.175 19.44 259.108 19.44C260.362 19.44 261.335 19.7467 262.028 20.36C262.722 20.9733 263.068 21.8267 263.068 22.92V28.6H264.248V30H263.348ZM258.748 28.88C259.148 28.88 259.515 28.8333 259.848 28.74C260.182 28.6467 260.468 28.5133 260.708 28.34C260.948 28.1667 261.135 27.9667 261.268 27.74C261.402 27.5133 261.468 27.2667 261.468 27V25.3H259.348C258.428 25.3 257.755 25.4333 257.328 25.7C256.915 25.9667 256.708 26.3533 256.708 26.86V27.28C256.708 27.7867 256.888 28.18 257.248 28.46C257.622 28.74 258.122 28.88 258.748 28.88ZM268.232 30C267.672 30 267.245 29.8467 266.952 29.54C266.672 29.22 266.532 28.82 266.532 28.34V15.2H268.132V28.6H269.652V30H268.232Z" fill="black"/>
</svg>
